<?xml version="1.0" encoding="UTF-8" standalone="no"?>
<!DOCTYPE svg PUBLIC "-//W3C//DTD SVG 1.1//EN" "http://www.w3.org/Graphics/SVG/1.1/DTD/svg11.dtd">
<!-- Created with Vectornator (http://vectornator.io/) -->
<svg height="100%" stroke-miterlimit="10" style="fill-rule:nonzero;clip-rule:evenodd;stroke-linecap:round;stroke-linejoin:round;" version="1.1" viewBox="0 0 1024 1024" width="100%" xml:space="preserve" xmlns="http://www.w3.org/2000/svg" xmlns:vectornator="http://vectornator.io" xmlns:xlink="http://www.w3.org/1999/xlink">
<defs/>
<g id="Carrot" vectornator:layerName="Carrot">
<g opacity="1">
<path d="M694.208 6.52895C692.935 6.56863 691.685 6.72906 690.427 7.02845C687.248 7.78994 684.303 9.36594 681.899 11.5952C681.899 11.5952 673.241 19.5814 663.133 30.0052C653.025 40.4289 641.537 52.7895 633.841 65.1481C615.822 94.0924 604.94 126.158 596.95 157.34C590.075 184.149 589.223 210.505 587.245 234.762C586.012 249.931 585.246 270.629 584.748 287.887C569.221 282.601 552.059 279.028 533.478 282.856C487.914 292.237 457.697 328.138 430.832 353.32C381.371 399.695 342.818 455.193 305.566 508.806C257.282 578.301 212.845 651.15 175.341 727.62C141.427 796.755 75.9317 871.939 84.6474 963.345C86.4927 982.72 95.9754 1002.68 116.793 1012.15C146.063 1025.48 173.825 1010.54 192.288 1002.81C234.567 985.09 264.574 952.3 294.613 927.953C368.233 868.277 438.474 804.594 506.755 739.322C571.083 677.832 646.962 621.019 699.061 541.344C711.036 523.026 717.879 502.768 722.787 483.51C727.542 464.842 736.615 440.533 729.565 413.438C728.573 409.624 726.892 406.414 725.462 402.949C738.812 400.082 754.022 397.033 769.347 392.745C807.792 381.993 846.647 370.317 884.48 354.962C901.917 347.883 929.898 332.77 929.898 332.77C936.332 329.365 940.31 322.596 940.138 315.252C939.966 307.908 935.7 301.27 929.113 298.126C929.113 298.126 909.735 288.131 893.257 284.283C872.428 279.416 852.424 278.927 833.496 278.432C841.196 272.697 848.571 267 854.51 261.949C879.108 241.016 918.374 198.335 918.374 198.335C924.111 192.126 925.16 182.881 920.943 175.501C916.726 168.12 908.246 164.346 900.036 166.224C900.036 166.224 863.157 174.497 842.273 181.958C829.885 186.383 818.008 191.512 806.416 196.907C815.049 186.046 823.6 174.871 829.75 165.154C846.224 139.096 866.605 90.4796 866.605 90.4796C869.573 83.528 868.22 75.4598 863.18 69.822C858.14 64.1841 850.321 62.0262 843.165 64.2919C843.165 64.2919 831.953 67.8646 818.368 73.033C804.789 78.2005 789.078 84.4829 776.875 92.5489C748.484 111.321 729.907 137.127 710.371 156.413C710.662 149.308 710.702 141.113 711.227 136.148C712.73 121.846 720.499 103.775 721.074 80.5254C721.672 56.3452 713.653 21.9419 713.653 21.9419C712.579 16.8271 709.502 12.367 705.126 9.56159C701.844 7.45753 698.029 6.40991 694.208 6.52895ZM681.436 67.2175C681.871 71.3617 682.819 76.8922 682.756 79.4194C682.429 92.7645 675.411 109.833 673.087 131.938C670.335 158.089 670.839 204.257 670.839 204.257C670.886 212.085 675.577 219.148 682.756 222.132C689.935 225.116 698.171 223.427 703.627 217.886C703.627 217.886 726.005 195.236 737.058 184.349C759.619 162.114 777.095 138.801 797.996 124.98C800.901 123.062 805.92 120.561 811.375 118.023C806.389 128.166 801.381 137.901 797.39 144.211C784.045 165.315 745.05 210.108 745.05 210.108C744.948 210.229 744.863 210.342 744.764 210.465L712.083 249.247C706.025 256.442 706.033 267.046 712.083 274.293C718.134 281.54 728.466 283.305 736.523 278.503C736.523 278.503 777.236 254.438 796.605 244.681C809.465 238.21 822.516 232.155 835.744 226.485C833.915 228.147 831.274 230.902 829.678 232.265C809.771 249.202 760.713 282.214 760.712 282.214C754.496 286.36 751.239 293.778 752.364 301.23C753.489 308.683 758.793 314.792 765.957 316.929C779.531 320.986 791.689 320.487 800.957 319.248C810.225 318.006 816.583 316.563 822.115 316.75C838.71 317.309 854.509 317.586 869.138 319.355C833.736 333.665 796.676 344.932 759.036 355.461C741.624 360.33 707.492 367.477 702.735 368.484C697.423 362.768 692.049 357.422 687.215 352.607C668.517 333.98 646.899 317.035 622.674 304.299C623.002 290.238 623.839 257.896 625.457 238.044C627.527 212.656 628.631 188.59 634.126 167.152C641.593 138.013 651.418 109.759 666.308 85.8414C669.063 81.4154 675.052 74.3385 681.436 67.2175ZM546.679 320.14C559.996 319.606 577.141 325.587 594.452 333.162C618.369 343.632 640.72 360.629 660.314 380.15C675.529 395.306 688.988 409.702 692.496 423.178C695.649 435.289 690.838 453.251 685.61 473.77C681.264 490.823 675.487 506.956 667.022 519.902C619.817 592.091 546.891 647.57 480.354 711.172C412.551 775.985 343.086 838.991 270.566 897.769C237.707 924.407 209.742 953.54 177.482 967.056C158.406 975.048 140.342 980.454 132.456 976.867C129.745 975.633 123.443 966.313 122.823 959.777C116.172 890.018 172.539 820.579 209.664 744.888C246.124 670.552 289.591 599.338 336.999 531.105C374.221 477.537 411.432 424.464 456.984 381.756C485.743 354.795 512.326 326.732 541.221 320.782C542.956 320.425 544.777 320.216 546.679 320.14Z" fill="#ffffff" fill-rule="nonzero" opacity="1" stroke="none"/>
<path d="M681.749 67.2786C682.184 71.4229 683.143 76.9393 683.08 79.4664C682.754 92.8116 675.758 109.88 673.434 131.985C670.682 158.136 671.156 204.312 671.156 204.312C671.203 212.14 675.913 219.187 683.092 222.171C690.271 225.155 698.508 223.489 703.964 217.948C703.964 217.948 726.325 195.282 737.378 184.394C759.939 162.16 777.414 138.842 798.316 125.022C801.221 123.103 806.253 120.606 811.709 118.068C806.723 128.212 801.728 137.944 797.737 144.254C784.393 165.358 745.392 210.147 745.392 210.147C745.29 210.268 745.19 210.389 745.091 210.512L712.428 249.314C706.37 256.509 706.365 267.089 712.415 274.336C718.466 281.583 728.801 283.375 736.858 278.574C736.858 278.574 777.576 254.499 796.945 244.742C809.805 238.272 822.858 232.197 836.086 226.526C834.258 228.188 831.616 230.975 830.02 232.337C810.113 249.275 761.035 282.262 761.035 282.262C754.818 286.408 751.562 293.827 752.687 301.279C753.812 308.732 759.114 314.866 766.278 317.002C779.852 321.059 792.016 320.546 801.284 319.307C810.552 318.065 816.918 316.636 822.449 316.823C839.044 317.382 854.836 317.654 869.466 319.424C834.064 333.734 797.005 344.987 759.364 355.516C741.952 360.385 707.808 367.524 703.051 368.53C697.739 362.815 692.369 357.472 687.535 352.657C668.837 334.03 647.243 317.077 623.017 304.341C623.345 290.281 624.159 257.968 625.776 238.116C627.846 212.728 628.956 188.649 634.452 167.211C641.918 138.072 651.759 109.813 666.649 85.8953C669.404 81.4693 675.365 74.3996 681.749 67.2786Z" fill="#ffffff" fill-opacity="0.45" fill-rule="evenodd" opacity="1" stroke="none"/>
<path d="M573.402 431.777C572.524 431.946 571.695 432.476 571.155 433.275C570.073 434.874 570.519 437.046 572.118 438.127L683.362 513.373L695.85 513.373L576.007 432.312C575.207 431.771 574.28 431.607 573.402 431.777ZM372.106 434.56L372.106 442.98L464.584 505.523C466.183 506.604 468.355 506.194 469.436 504.596C470.517 502.997 470.107 500.825 468.509 499.744L372.106 434.56ZM392.55 675.922C391.672 676.092 390.843 676.586 390.302 677.385C389.221 678.984 389.667 681.156 391.265 682.237L485.848 746.208L485.848 737.788L395.154 676.457C394.355 675.917 393.428 675.753 392.55 675.922ZM185.474 732.579L185.474 740.25L184.368 740.25L263.538 793.803C265.136 794.884 267.309 794.474 268.39 792.875C269.471 791.276 269.061 789.104 267.462 788.023L185.474 732.579Z" fill="#ffffff" fill-rule="nonzero" opacity="1" stroke="#ffffff" stroke-linecap="round" stroke-linejoin="miter" stroke-width="0.500019"/>
</g>
</g>
</svg>
